if (_typeface_js && _typeface_js.loadFace) _typeface_js.loadFace({"glyphs":{"S":{"x_min":83,"x_max":965,"ha":956,"o":"m 532 1299 q 449 1283 487 1299 q 383 1238 411 1267 q 339 1171 355 1210 q 323 1086 323 1132 q 338 1004 323 1043 q 382 935 354 965 q 449 889 411 906 q 533 872 487 872 q 637 857 585 872 q 738 816 689 843 q 827 751 786 790 q 899 664 868 712 q 947 556 929 615 q 965 431 965 498 q 953 337 965 387 q 918 238 941 287 q 857 144 894 189 q 772 65 821 100 q 661 11 723 31 q 523 -9 599 -9 q 342 28 423 -9 q 203 126 261 66 q 114 264 146 187 q 83 420 83 341 l 184 420 q 189 368 184 400 q 208 299 194 336 q 246 226 222 263 q 309 159 271 189 q 400 109 347 128 q 525 91 453 91 q 652 114 591 91 q 760 180 713 137 q 835 287 807 224 q 864 429 864 350 q 842 554 864 493 q 779 664 821 616 q 674 741 737 712 q 527 771 611 771 q 401 800 458 771 q 305 876 345 830 q 244 978 266 921 q 223 1085 223 1034 q 240 1184 223 1130 q 294 1286 257 1239 q 391 1366 332 1334 q 534 1398 450 1398 q 646 1379 598 1398 q 728 1331 694 1360 q 785 1265 762 1301 q 820 1195 807 1229 q 838 1132 833 1161 q 843 1088 843 1103 l 742 1088 q 729 1161 742 1124 q 690 1229 716 1199 q 624 1279 663 1260 q 532 1299 585 1299 "},"\u0000":{"x_min":83,"x_max":232,"ha":223,"o":"m 103 1398 l 208 1398 l 208 431 l 103 431 l 103 1398 m 157 140 q 210 118 188 140 q 232 65 232 96 q 210 12 232 34 q 157 -9 188 -9 q 104 12 126 -9 q 83 65 83 34 q 104 118 83 96 q 157 140 126 140 "},"/":{"x_min":76.859375,"x_max":1004.703125,"ha":989,"o":"m 890 1398 l 1004 1398 l 197 -9 l 76 -9 l 890 1398 "},"K":{"x_min":83,"x_max":917.6875,"ha":895,"o":"m 188 1398 l 188 800 l 776 1390 l 917 1389 l 217 689 l 916 -9 l 769 -9 l 187 574 l 187 -9 l 83 -9 l 83 1398 l 188 1398 "},"7":{"x_min":83.34375,"x_max":1056.5625,"ha":1040,"o":"m 880 1294 l 83 1294 l 83 1398 l 1056 1398 l 241 -9 l 115 -9 l 880 1294 "},"d":{"x_min":83,"x_max":1051,"ha":1042,"o":"m 1051 1398 l 1051 -9 l 946 -9 l 946 174 q 891 114 921 140 q 829 68 861 88 q 765 35 797 49 q 704 14 733 22 q 562 -9 633 -6 q 372 31 460 -9 q 220 140 284 72 q 119 294 156 207 q 83 473 83 381 q 117 652 83 565 q 216 806 152 739 q 369 915 280 874 q 566 957 458 957 q 711 933 640 954 q 774 912 742 925 q 836 879 806 898 q 895 834 867 860 q 946 774 923 808 l 946 1398 l 1051 1398 m 948 474 q 917 623 948 553 q 835 745 887 693 q 714 827 784 797 q 564 858 644 858 q 415 827 484 858 q 293 745 345 797 q 211 623 241 693 q 181 474 181 553 q 211 324 181 394 q 293 202 241 254 q 415 120 345 150 q 564 90 484 90 q 714 120 644 90 q 835 202 784 150 q 917 324 887 254 q 948 474 948 394 "},",":{"x_min":83,"x_max":182,"ha":173,"o":"m 182 121 l 182 -177 l 83 -177 l 83 121 l 182 121 "},"Y":{"x_min":83,"x_max":1055,"ha":1046,"o":"m 188 1398 l 188 912 q 215 769 188 839 q 292 645 242 699 q 413 557 342 590 q 568 524 483 524 q 703 546 645 524 q 804 604 762 569 q 875 680 847 638 q 920 761 903 722 q 944 830 937 799 q 951 873 951 861 l 951 1398 l 1055 1398 l 1055 872 q 1041 786 1055 834 q 1001 690 1027 739 q 938 596 976 642 q 854 515 901 551 q 751 457 807 479 q 632 433 695 434 l 632 -9 l 527 -9 l 527 433 q 367 469 446 434 q 224 565 287 503 q 122 715 161 627 q 83 914 83 803 l 83 1398 l 188 1398 "},"E":{"x_min":83,"x_max":1050.09375,"ha":1041,"o":"m 1050 1293 l 188 1293 l 188 945 l 832 945 l 832 840 l 188 840 l 188 96 l 1050 96 l 1050 -9 l 83 -9 l 83 1398 l 1050 1398 l 1050 1293 "},"y":{"x_min":83,"x_max":1042,"ha":1033,"o":"m 186 940 l 186 461 q 217 303 186 374 q 302 183 249 233 q 422 106 354 133 q 561 79 489 79 q 661 93 612 79 q 750 133 709 108 q 827 191 792 158 q 887 262 862 225 q 925 339 912 300 q 939 415 939 378 l 939 940 l 1042 940 l 1042 -6 q 1029 -102 1042 -51 q 989 -204 1016 -153 q 923 -303 963 -255 q 830 -387 883 -351 q 709 -446 776 -424 q 560 -468 641 -468 l 560 -364 q 717 -332 647 -364 q 836 -251 788 -301 q 911 -136 885 -200 q 938 -6 938 -72 l 938 166 q 887 106 915 132 q 828 60 859 80 q 766 27 798 41 q 705 6 735 14 q 562 -17 636 -14 q 430 0 493 -17 q 315 50 368 18 q 218 125 261 82 q 145 222 175 169 q 99 335 115 275 q 83 457 83 394 l 83 940 l 186 940 "},"\"":{"x_min":83,"x_max":321,"ha":312,"o":"m 321 1398 l 321 1085 l 218 1085 l 218 1398 l 321 1398 m 186 1398 l 186 1085 l 83 1085 l 83 1398 l 186 1398 "},"g":{"x_min":83,"x_max":1038,"ha":1029,"o":"m 1038 940 l 1038 -36 q 1025 -118 1038 -72 q 986 -212 1012 -164 q 921 -306 960 -260 q 828 -388 882 -352 q 707 -446 775 -424 q 557 -468 639 -468 l 557 -365 q 676 -348 622 -365 q 772 -304 730 -331 q 844 -241 813 -277 q 895 -170 875 -206 q 925 -98 915 -133 q 935 -36 935 -63 l 935 171 q 882 110 911 136 q 824 64 854 84 q 763 31 794 45 q 703 10 732 18 q 566 -13 636 -10 q 378 23 466 -13 q 224 123 290 59 q 120 274 158 187 q 83 463 83 361 q 120 651 83 563 q 224 802 158 739 q 376 903 289 866 q 560 940 462 940 q 697 916 629 937 q 757 895 725 908 q 819 862 788 881 q 880 815 850 842 q 935 754 910 789 l 934 940 l 1038 940 m 937 462 q 907 608 937 539 q 826 728 877 677 q 707 809 775 779 q 560 839 638 839 q 414 809 483 839 q 294 728 345 779 q 213 608 243 677 q 184 462 184 539 q 213 315 184 384 q 294 195 243 246 q 414 114 345 144 q 560 85 483 85 q 707 114 638 85 q 826 195 775 144 q 907 315 877 246 q 937 462 937 384 "},"e":{"x_min":84,"x_max":1021.65625,"ha":1012,"o":"m 179 450 q 187 396 179 430 q 212 321 195 362 q 256 239 229 281 q 325 164 284 198 q 422 108 366 130 q 553 87 479 87 q 573 88 553 87 q 627 96 594 89 q 700 118 660 103 q 779 162 741 134 q 852 234 818 190 q 904 340 885 277 l 1004 340 q 957 224 986 274 q 892 137 928 174 q 818 75 857 100 q 742 34 779 51 q 552 -9 653 -3 q 404 12 470 -9 q 285 70 338 33 q 195 154 233 106 q 132 256 157 203 q 95 364 107 309 q 84 468 84 418 q 95 560 84 510 q 132 662 107 611 q 194 761 156 713 q 284 846 232 809 q 403 906 336 883 q 551 929 469 929 q 692 908 628 929 q 809 853 756 888 q 901 771 861 818 q 967 671 941 725 q 1008 561 994 618 q 1021 450 1021 504 l 179 450 m 916 544 q 880 638 902 597 q 829 710 857 680 q 769 762 800 741 q 706 796 737 782 q 550 833 634 828 q 395 796 467 828 q 332 762 364 782 q 272 710 300 741 q 221 638 244 680 q 185 544 199 597 l 916 544 "},"J":{"x_min":83,"x_max":1051,"ha":1042,"o":"m 1051 1398 l 1051 440 q 1013 276 1051 357 q 911 132 975 195 q 758 29 846 68 q 570 -9 670 -9 q 464 3 520 -9 q 354 42 409 16 q 251 108 300 68 q 164 203 202 148 q 105 327 127 257 q 83 482 83 397 l 187 482 q 211 343 187 413 q 282 217 235 273 q 401 126 330 161 q 567 91 473 91 q 723 122 653 91 q 842 205 793 154 q 919 318 892 256 q 946 440 946 380 l 946 1398 l 1051 1398 "},"|":{"x_min":83,"x_max":188,"ha":179,"o":"m 188 1398 l 188 -9 l 83 -9 l 83 1398 l 188 1398 "},"^":{"x_min":76.859375,"x_max":630.609375,"ha":615,"o":"m 353 1408 l 630 922 l 519 922 l 353 1217 l 187 922 l 76 922 l 353 1408 "},"q":{"x_min":83,"x_max":1407.578125,"ha":1028,"o":"m 1027 935 l 1027 0 q 1061 -163 1027 -93 q 1149 -278 1095 -233 q 1271 -347 1203 -324 q 1407 -370 1339 -370 l 1407 -472 q 1202 -430 1291 -472 q 1051 -321 1112 -388 q 957 -170 989 -254 q 926 0 926 -85 l 926 168 q 872 109 900 135 q 812 65 843 83 q 751 33 782 46 q 691 12 720 20 q 555 -10 624 -7 q 435 5 494 -10 q 324 50 377 21 q 227 121 271 79 q 151 215 183 163 q 101 330 119 268 q 83 462 83 392 q 116 638 83 553 q 212 789 150 723 q 360 895 273 855 q 555 935 447 935 q 690 911 624 931 q 749 890 719 903 q 811 858 780 877 q 871 814 841 839 q 926 755 900 788 l 925 935 l 1027 935 m 926 460 q 896 605 926 537 q 816 723 866 672 q 697 803 765 774 q 552 833 629 833 q 407 803 475 833 q 288 723 339 774 q 209 605 238 672 q 180 460 180 537 q 209 315 180 383 q 288 196 238 247 q 407 117 339 146 q 552 88 475 88 q 697 117 629 88 q 816 196 765 146 q 896 315 866 247 q 926 460 926 383 "},"b":{"x_min":83,"x_max":1051,"ha":1042,"o":"m 83 -9 l 83 1398 l 188 1398 l 188 772 q 240 833 212 806 q 300 879 269 859 q 363 912 332 898 q 425 933 395 925 q 565 957 494 954 q 756 918 667 957 q 910 814 845 880 q 1013 661 976 748 q 1051 476 1051 574 q 1013 290 1051 378 q 910 135 976 202 q 757 29 845 68 q 567 -9 668 -9 q 427 15 497 -6 q 366 37 398 24 q 302 71 334 51 q 242 118 271 91 q 188 181 213 145 l 188 -9 l 83 -9 m 950 473 q 919 623 950 553 q 837 744 889 693 q 716 826 786 796 q 567 857 646 857 q 417 826 487 857 q 296 744 347 796 q 214 623 244 693 q 184 473 184 553 q 214 324 184 393 q 296 202 244 254 q 417 120 347 150 q 567 90 487 90 q 716 120 646 90 q 837 202 786 150 q 919 324 889 254 q 950 473 950 393 "},"D":{"x_min":83,"x_max":881,"ha":872,"o":"m 175 1398 q 360 1373 271 1398 q 527 1302 449 1348 q 671 1193 606 1257 q 782 1051 736 1129 q 855 883 829 973 q 881 697 881 794 q 856 511 881 601 q 786 342 831 421 q 677 199 741 264 q 536 88 614 134 q 368 16 458 41 q 179 -9 277 -9 l 83 -9 l 83 1398 l 175 1398 m 781 694 q 752 884 781 799 q 677 1037 724 970 q 568 1152 629 1103 q 441 1234 507 1201 q 309 1282 375 1266 q 188 1300 243 1299 l 188 90 q 337 111 263 90 q 477 170 411 132 q 599 261 543 207 q 695 381 654 314 q 758 527 735 448 q 781 694 781 606 "},"z":{"x_min":72.234375,"x_max":1038.96875,"ha":1030,"o":"m 1031 947 l 274 86 l 1038 86 l 1038 -10 l 72 -10 l 827 851 l 83 851 l 83 947 l 1031 947 "},"w":{"x_min":84,"x_max":1923,"ha":1914,"o":"m 189 961 l 189 436 q 198 377 189 412 q 228 303 208 342 q 278 226 248 264 q 351 157 309 187 q 448 107 393 126 q 569 88 502 88 q 714 119 645 88 q 836 201 783 151 q 919 312 888 251 q 951 428 951 372 l 951 961 l 1056 961 l 1056 427 q 1089 304 1056 365 q 1176 195 1122 243 q 1298 117 1230 147 q 1435 88 1366 88 q 1510 98 1468 88 q 1594 130 1551 109 q 1676 181 1636 150 q 1748 255 1717 212 q 1799 349 1780 297 q 1818 464 1818 401 l 1818 961 l 1923 961 l 1923 464 q 1910 368 1923 420 q 1872 263 1898 315 q 1806 161 1846 210 q 1713 74 1767 112 q 1590 13 1659 36 q 1436 -9 1521 -9 q 1259 25 1343 -5 q 1186 57 1223 38 q 1115 105 1149 77 q 1051 172 1080 133 q 1003 262 1022 211 q 951 172 981 211 q 886 105 921 133 q 815 57 852 77 q 742 25 778 38 q 569 -9 659 -5 q 430 10 494 -9 q 311 65 365 30 q 214 144 257 99 q 143 238 172 189 q 99 339 114 288 q 84 438 84 390 l 84 961 l 189 961 "},"$":{"x_min":83,"x_max":955,"ha":946,"o":"m 321 1082 q 336 1001 321 1039 q 380 933 352 962 q 446 887 408 904 q 528 870 484 870 q 682 838 606 870 q 819 751 758 807 q 917 613 879 694 q 955 433 955 533 q 931 299 955 371 q 860 164 908 227 q 739 55 813 100 q 566 0 666 9 l 566 -190 l 472 -190 l 472 0 q 312 49 384 10 q 189 147 240 88 q 110 277 138 205 q 83 423 83 349 l 183 423 q 188 372 183 403 q 207 304 193 340 q 245 230 221 267 q 306 164 269 194 q 397 116 344 135 q 520 98 449 98 q 645 120 585 98 q 753 186 706 143 q 827 291 799 229 q 855 432 855 353 q 834 556 855 496 q 771 664 813 617 q 667 740 729 711 q 523 770 605 770 q 398 799 454 770 q 303 874 342 828 q 242 974 263 920 q 221 1081 221 1029 q 235 1171 221 1122 q 280 1264 249 1220 q 361 1343 311 1309 q 478 1387 410 1376 l 478 1579 l 572 1579 l 572 1388 q 667 1360 626 1381 q 737 1310 708 1339 q 785 1248 766 1281 q 815 1182 804 1214 q 831 1124 826 1150 q 835 1083 835 1098 l 735 1083 q 722 1155 735 1118 q 684 1223 709 1192 q 619 1272 658 1253 q 528 1292 580 1292 q 446 1276 484 1292 q 380 1232 408 1260 q 336 1166 352 1204 q 321 1082 321 1127 "},"™":{"x_min":82.984375,"x_max":907,"ha":898,"o":"m 522 1410 l 714 1222 l 907 1411 l 907 977 l 826 977 l 826 1225 l 714 1112 l 603 1225 l 603 978 l 522 978 l 522 1410 m 499 1399 l 499 1318 l 339 1318 l 339 978 l 258 978 l 258 1317 l 82 1317 l 82 1399 l 499 1399 "},"\\":{"x_min":76.859375,"x_max":1004.703125,"ha":989,"o":"m 197 1398 l 1004 -9 l 890 -9 l 76 1398 l 197 1398 "},"~":{"x_min":80.5625,"x_max":807.46875,"ha":795,"o":"m 574 651 q 491 663 525 651 q 429 689 458 675 q 401 703 414 697 q 372 714 388 709 q 341 722 357 719 q 305 725 325 725 q 254 712 281 723 q 202 682 231 702 q 142 625 173 662 l 80 685 q 155 759 115 733 q 227 798 194 785 q 283 812 261 810 q 305 814 305 814 q 383 802 348 814 q 451 775 419 790 q 511 750 480 762 q 574 737 541 737 q 633 751 602 739 q 689 783 659 761 q 749 845 720 804 l 807 788 q 738 709 777 736 q 662 668 699 681 q 574 651 618 652 "},"-":{"x_min":83.34375,"x_max":677.828125,"ha":669,"o":"m 677 723 l 677 615 l 83 615 l 83 723 l 677 723 "},"Q":{"x_min":83,"x_max":1503.890625,"ha":1482,"o":"m 786 -9 q 583 20 677 -9 q 411 99 489 49 q 271 218 333 150 q 168 364 210 286 q 104 526 126 442 q 83 694 83 611 q 107 878 83 788 q 177 1045 132 967 q 286 1188 222 1124 q 427 1299 349 1253 q 595 1372 505 1346 q 783 1398 685 1398 q 981 1371 888 1398 q 1153 1296 1075 1344 q 1294 1182 1232 1248 q 1400 1038 1356 1116 q 1466 872 1443 960 q 1490 694 1490 785 q 1464 517 1487 605 q 1440 439 1455 479 q 1404 357 1426 398 q 1354 277 1383 316 q 1289 204 1326 239 l 1503 -9 l 1355 -9 l 1210 136 q 1142 88 1177 108 q 1070 52 1106 67 q 999 26 1034 37 q 932 9 963 16 q 786 -9 858 -7 m 1072 425 l 1223 274 q 1278 337 1254 303 q 1319 406 1302 371 q 1348 476 1336 441 q 1368 543 1360 511 q 1390 694 1386 618 q 1367 856 1390 778 q 1304 1001 1345 934 q 1207 1123 1264 1068 q 1084 1217 1151 1178 q 941 1277 1017 1256 q 783 1299 864 1299 q 625 1277 701 1299 q 483 1215 549 1255 q 360 1120 416 1175 q 265 998 305 1064 q 204 855 226 931 q 182 698 182 779 q 200 552 182 626 q 254 412 219 479 q 342 285 290 344 q 461 183 394 227 q 609 114 528 139 q 786 90 691 90 q 911 104 848 91 q 1026 138 964 115 q 1142 205 1087 161 l 923 425 l 1072 425 "},"M":{"x_min":83,"x_max":1795,"ha":1786,"o":"m 83 -9 l 83 1400 l 933 549 l 1795 1411 l 1795 -9 l 1697 -9 l 1697 1175 l 936 415 l 182 1169 l 181 -9 l 83 -9 "},"C":{"x_min":83,"x_max":1444,"ha":1431,"o":"m 1339 944 q 1268 1060 1308 1009 q 1184 1147 1229 1110 q 1093 1210 1140 1184 q 1002 1252 1046 1235 q 786 1297 897 1291 q 605 1270 688 1297 q 455 1198 522 1244 q 336 1093 388 1153 q 250 966 285 1033 q 197 828 215 898 q 180 690 180 757 q 198 553 180 624 q 253 416 217 483 q 341 290 289 349 q 461 185 393 230 q 611 114 529 140 q 788 88 693 88 q 998 130 897 93 q 1087 171 1041 146 q 1176 232 1132 196 q 1260 317 1220 268 q 1330 429 1299 365 l 1444 429 q 1365 284 1411 347 q 1268 175 1319 222 q 1160 97 1216 129 q 1050 45 1104 65 q 786 -9 924 -2 q 566 22 665 -9 q 388 108 467 54 q 253 233 310 162 q 157 382 195 304 q 101 540 119 460 q 83 694 83 621 q 102 848 83 767 q 160 1006 121 928 q 258 1155 199 1085 q 395 1280 317 1226 q 571 1366 473 1334 q 788 1398 669 1398 q 1000 1367 905 1398 q 1167 1290 1094 1336 q 1290 1187 1239 1243 q 1375 1080 1342 1131 q 1424 992 1408 1030 q 1439 944 1439 955 l 1339 944 "},"[":{"x_min":83,"x_max":431.875,"ha":423,"o":"m 431 1301 l 180 1301 l 180 89 l 431 89 l 431 -9 l 83 -9 l 83 1398 l 431 1398 l 431 1301 "},"L":{"x_min":83,"x_max":1049.171875,"ha":1040,"o":"m 188 1398 l 188 96 l 1049 96 l 1049 -9 l 83 -9 l 83 1398 l 188 1398 "}," ":{"x_min":0,"x_max":0,"ha":602},"{":{"x_min":80.171875,"x_max":713.390625,"ha":704,"o":"m 713 1293 q 599 1266 651 1293 q 506 1196 547 1239 q 434 1099 465 1153 q 382 990 403 1045 q 352 885 362 935 q 342 800 342 836 l 220 680 l 343 557 q 352 500 343 540 q 380 408 361 459 q 429 301 399 356 q 499 200 458 246 q 594 125 541 155 q 713 96 647 96 l 713 -9 q 566 22 631 -9 q 449 104 500 54 q 361 214 398 153 q 300 332 324 275 q 264 436 276 389 q 251 506 251 483 l 80 678 l 245 843 q 258 932 245 877 q 297 1048 271 987 q 361 1172 322 1110 q 451 1284 400 1234 q 568 1366 503 1335 q 713 1398 634 1398 l 713 1293 "},"X":{"x_min":72.234375,"x_max":1522.34375,"ha":1502,"o":"m 854 647 l 1437 -9 l 1313 -9 l 797 579 l 282 -9 l 158 -9 l 742 646 l 72 1397 l 196 1397 l 798 718 l 1400 1398 l 1522 1398 l 854 647 "},"P":{"x_min":83,"x_max":1028,"ha":1019,"o":"m 185 1398 l 185 1216 q 235 1276 207 1250 q 292 1320 262 1301 q 354 1353 323 1339 q 414 1374 385 1366 q 556 1398 483 1394 q 748 1359 661 1398 q 897 1255 835 1321 q 993 1105 959 1190 q 1028 925 1028 1019 q 993 745 1028 830 q 897 595 959 660 q 749 492 836 530 q 558 454 663 454 q 416 476 485 456 q 355 497 386 484 q 293 529 323 510 q 235 573 263 548 q 185 632 207 599 l 185 -9 l 83 -9 l 83 1398 l 185 1398 m 928 926 q 898 1070 928 1002 q 819 1189 869 1138 q 700 1268 768 1239 q 555 1298 632 1298 q 410 1268 478 1298 q 291 1189 342 1239 q 212 1070 241 1138 q 183 926 183 1002 q 212 781 183 849 q 291 662 241 713 q 410 583 342 612 q 555 554 478 554 q 700 583 632 554 q 819 662 768 612 q 898 781 869 713 q 928 926 928 849 "},"%":{"x_min":76.859375,"x_max":1003,"ha":994,"o":"m 355 1398 q 461 1376 411 1398 q 548 1318 511 1355 q 606 1231 585 1281 q 628 1125 628 1182 q 606 1019 628 1069 q 548 932 585 969 q 461 874 511 895 q 355 853 411 853 q 249 874 299 853 q 163 932 200 895 q 105 1019 126 969 q 84 1125 84 1069 q 105 1231 84 1182 q 163 1318 126 1281 q 249 1376 200 1355 q 355 1398 299 1398 m 888 1398 l 1002 1398 l 197 -7 l 76 -7 l 888 1398 m 458 263 q 479 369 458 319 q 537 456 500 419 q 624 514 574 493 q 730 536 673 536 q 836 514 787 536 q 923 456 886 493 q 981 369 960 419 q 1003 263 1003 319 q 981 157 1003 206 q 923 70 960 107 q 836 12 886 33 q 730 -9 787 -9 q 624 12 673 -9 q 537 70 574 33 q 479 157 500 107 q 458 263 458 206 m 523 1125 q 510 1190 523 1160 q 473 1244 497 1221 q 420 1280 450 1267 q 355 1293 389 1293 q 290 1280 320 1293 q 237 1244 260 1267 q 201 1190 214 1221 q 189 1125 189 1160 q 201 1060 189 1090 q 237 1007 214 1030 q 290 970 260 983 q 355 958 320 958 q 420 970 389 958 q 473 1007 450 983 q 510 1060 497 1030 q 523 1125 523 1090 m 730 96 q 795 108 764 96 q 848 144 825 121 q 885 197 872 167 q 898 263 898 227 q 885 328 898 297 q 848 381 872 358 q 795 418 825 405 q 730 431 764 431 q 665 418 695 431 q 612 381 635 405 q 575 328 588 358 q 563 263 563 297 q 575 197 563 227 q 612 144 588 167 q 665 108 635 121 q 730 96 695 96 "},"#":{"x_min":76.859375,"x_max":1419.5625,"ha":1403,"o":"m 1011 1398 l 767 977 l 1055 977 l 1299 1398 l 1419 1398 l 1175 977 l 1399 977 l 1399 880 l 1113 880 l 898 496 l 1109 496 l 1109 400 l 835 400 l 605 -8 l 485 -8 l 722 399 l 427 399 l 197 -9 l 76 -9 l 313 399 l 83 399 l 83 497 l 370 497 l 590 880 l 373 880 l 373 977 l 648 977 l 890 1398 l 1011 1398 m 778 496 l 999 880 l 703 880 l 484 496 l 778 496 "},"_":{"x_min":83.34375,"x_max":1118.609375,"ha":1109,"o":"m 1118 7 l 1118 -96 l 83 -96 l 83 7 l 1118 7 "},"+":{"x_min":82.984375,"x_max":633.09375,"ha":624,"o":"m 308 723 l 308 948 l 408 948 l 408 723 l 633 723 l 633 623 l 409 623 l 409 398 l 308 398 l 308 623 l 82 623 l 82 723 l 308 723 "},")":{"x_min":83.125,"x_max":565,"ha":556,"o":"m 83 1398 q 271 1344 183 1398 q 424 1196 359 1290 q 527 973 489 1101 q 565 694 565 844 q 526 415 565 544 q 423 192 488 287 q 270 44 358 98 q 83 -9 183 -9 l 83 95 q 219 135 151 95 q 340 253 286 176 q 426 442 393 331 q 460 696 460 554 q 426 949 460 839 q 340 1137 393 1060 q 219 1253 286 1213 q 83 1293 151 1293 l 83 1398 "},"'":{"x_min":83,"x_max":187,"ha":178,"o":"m 187 1399 l 187 1084 l 83 1084 l 83 1399 l 187 1399 "},"}":{"x_min":83.609375,"x_max":717.765625,"ha":704,"o":"m 552 843 l 717 678 l 546 506 q 532 436 545 483 q 496 332 520 389 q 435 214 472 275 q 347 104 398 153 q 230 22 296 54 q 83 -9 165 -9 l 83 96 q 202 125 149 96 q 297 200 255 155 q 367 301 338 246 q 416 408 397 356 q 444 500 435 459 q 454 557 454 540 l 576 680 l 456 800 q 445 885 456 836 q 415 990 435 935 q 363 1099 394 1045 q 291 1196 332 1153 q 198 1266 250 1239 q 83 1293 145 1293 l 83 1398 q 228 1366 163 1398 q 345 1284 293 1335 q 436 1172 397 1234 q 499 1048 474 1110 q 538 932 525 987 q 552 843 551 877 "},"a":{"x_min":83,"x_max":1025,"ha":1016,"o":"m 1025 931 l 1025 -9 l 924 -9 l 924 171 q 870 111 899 137 q 811 66 841 85 q 749 34 780 47 q 689 13 718 21 q 552 -9 622 -6 q 426 8 486 -9 q 314 57 366 26 q 219 131 261 88 q 146 227 176 175 q 99 338 116 279 q 83 461 83 398 q 99 583 83 523 q 146 694 116 642 q 219 790 176 746 q 314 864 261 833 q 427 913 366 895 q 554 931 487 931 q 691 908 623 928 q 750 887 720 900 q 811 855 781 874 q 871 810 842 836 q 924 751 899 784 l 924 931 l 1025 931 m 927 461 q 897 605 927 537 q 818 724 868 673 q 699 804 767 774 q 554 834 631 834 q 408 804 476 834 q 290 724 341 774 q 210 605 239 673 q 181 461 181 537 q 210 316 181 384 q 290 197 239 248 q 408 117 341 146 q 554 88 476 88 q 699 117 631 88 q 818 197 767 146 q 897 316 868 248 q 927 461 927 384 "},"T":{"x_min":82.8125,"x_max":1049.84375,"ha":1041,"o":"m 1049 1398 l 1049 1293 l 635 1293 l 635 -9 l 531 -9 l 531 1293 l 82 1293 l 82 1398 l 1049 1398 "},"=":{"x_min":83.34375,"x_max":634.3125,"ha":625,"o":"m 634 722 l 83 722 l 83 822 l 634 822 l 634 722 m 634 624 l 634 524 l 83 524 l 83 624 l 634 624 "},"N":{"x_min":83,"x_max":1070,"ha":1061,"o":"m 83 1416 l 965 266 l 965 1398 l 1070 1398 l 1070 -22 l 187 1125 l 187 -9 l 83 -9 l 83 1416 "},"2":{"x_min":70.34375,"x_max":935,"ha":926,"o":"m 935 914 q 924 815 935 863 q 896 724 913 766 q 854 647 878 682 q 805 585 831 611 l 314 96 l 935 96 l 935 -9 l 70 -9 l 737 659 q 775 705 757 678 q 807 766 793 733 q 829 837 821 799 q 838 916 838 875 q 829 981 838 943 q 802 1062 821 1020 q 753 1145 783 1104 q 680 1219 723 1186 q 580 1272 637 1252 q 451 1293 524 1293 q 437 1292 451 1293 q 398 1288 422 1292 q 343 1276 375 1284 q 280 1254 312 1268 q 216 1217 248 1240 q 160 1163 185 1195 l 91 1231 q 145 1286 116 1262 q 204 1328 174 1310 q 264 1358 234 1345 q 322 1377 294 1370 q 451 1398 387 1395 q 600 1377 533 1398 q 721 1320 667 1356 q 815 1237 775 1285 q 881 1137 855 1190 q 921 1026 908 1083 q 935 914 935 969 "},"j":{"x_min":-241.375,"x_max":271,"ha":262,"o":"m 123 1324 q 144 1376 123 1354 q 197 1398 166 1398 q 249 1376 227 1398 q 271 1324 271 1354 q 249 1271 271 1293 q 197 1250 227 1250 q 144 1271 166 1250 q 123 1324 123 1293 m 245 962 l 245 20 q 225 -119 245 -55 q 171 -237 206 -184 q 90 -332 136 -291 q -10 -401 43 -373 q -123 -444 -64 -430 q -241 -459 -182 -459 l -241 -356 q -104 -333 -172 -356 q 18 -263 -35 -310 q 107 -144 73 -216 q 142 24 142 -72 l 142 962 l 245 962 "},"Z":{"x_min":72.234375,"x_max":1459.375,"ha":1450,"o":"m 1438 1398 l 277 86 l 1459 86 l 1459 -10 l 72 -10 l 1242 1308 l 97 1309 l 97 1398 l 1438 1398 "},"u":{"x_min":83,"x_max":1040,"ha":1031,"o":"m 186 946 l 186 468 q 216 311 186 382 q 298 191 247 241 q 417 114 349 141 q 559 87 485 87 q 658 101 611 87 q 748 141 706 116 q 824 199 790 166 q 884 268 859 232 q 922 343 909 305 q 936 415 936 381 l 936 946 l 1040 946 l 1040 -9 l 937 -9 l 937 169 q 883 110 912 136 q 823 66 854 84 q 761 34 792 47 q 700 13 729 21 q 561 -9 632 -6 q 358 32 447 -9 q 208 141 269 74 q 114 294 146 209 q 83 468 83 380 l 83 946 l 186 946 "},"1":{"x_min":79.390625,"x_max":426,"ha":417,"o":"m 426 -9 l 322 -9 l 322 1177 l 144 999 l 79 1064 l 426 1411 l 426 -9 "},"k":{"x_min":83,"x_max":662,"ha":653,"o":"m 383 438 q 432 412 403 430 q 492 366 461 394 q 553 302 523 339 q 608 217 584 264 q 647 114 632 171 q 662 -9 662 57 l 557 -9 q 534 137 557 75 q 476 242 511 199 q 397 313 440 286 q 313 356 354 340 q 238 378 272 372 q 188 385 204 384 l 188 -9 l 83 -9 l 83 1398 l 188 1398 l 188 491 q 267 506 225 491 q 349 546 309 520 q 427 609 390 571 q 494 696 465 647 q 539 804 522 744 q 557 934 557 864 l 662 934 q 646 810 662 868 q 607 699 631 751 q 552 605 583 648 q 491 529 522 563 q 431 472 460 495 q 383 438 403 449 "},"€":{"x_min":83.34375,"x_max":711.171875,"ha":702,"o":"m 711 1293 q 589 1262 643 1293 q 494 1186 536 1232 q 424 1082 453 1139 q 375 971 394 1024 q 346 873 356 917 q 334 810 336 830 l 494 810 l 494 705 l 326 705 l 326 670 l 492 670 l 492 565 l 333 565 q 345 499 335 542 q 376 404 356 456 q 427 297 397 352 q 498 198 457 243 q 592 124 539 153 q 711 96 645 96 l 711 -9 q 572 19 636 -9 q 456 96 509 48 q 363 204 404 143 q 295 329 323 266 q 252 455 267 393 q 236 567 237 517 l 83 567 l 83 672 l 228 672 l 228 705 l 83 705 l 83 810 l 236 810 q 251 922 237 860 q 293 1051 265 985 q 360 1179 320 1116 q 452 1290 400 1241 q 569 1368 504 1338 q 710 1398 633 1398 l 711 1293 "},"<":{"x_min":74.078125,"x_max":856.546875,"ha":847,"o":"m 854 974 l 275 647 l 856 320 l 856 200 l 74 647 l 854 1095 l 854 974 "},"t":{"x_min":83,"x_max":575.984375,"ha":567,"o":"m 188 1398 l 188 964 l 575 964 l 575 859 l 187 859 l 187 461 q 216 316 187 383 q 297 200 245 250 q 421 123 349 151 q 575 95 492 95 l 575 -9 q 434 9 500 -9 q 313 60 368 28 q 216 137 259 92 q 143 233 173 181 q 98 344 114 286 q 83 460 83 401 l 83 1398 l 188 1398 "},"W":{"x_min":83,"x_max":1806,"ha":1797,"o":"m 1806 1398 l 1806 -22 l 938 845 l 83 -9 l 83 1398 l 182 1398 l 182 219 l 941 978 l 1707 214 l 1707 1398 l 1806 1398 "},"v":{"x_min":76.859375,"x_max":1085.265625,"ha":1070,"o":"m 581 173 l 979 946 l 1085 946 l 581 -20 l 76 945 l 183 945 l 581 173 "},">":{"x_min":83.34375,"x_max":853.765625,"ha":835,"o":"m 853 654 l 83 214 l 83 332 l 654 653 l 84 976 l 84 1095 l 853 654 "},"s":{"x_min":83,"x_max":698,"ha":689,"o":"m 392 848 q 344 838 365 848 q 307 813 323 829 q 284 775 292 797 q 276 727 276 752 q 280 692 276 713 q 300 653 285 672 q 344 619 315 633 q 422 606 374 606 q 513 584 464 606 q 603 522 561 562 q 671 427 644 482 q 698 304 698 371 q 679 202 698 256 q 620 100 660 147 q 521 22 581 53 q 378 -9 460 -9 q 266 13 320 -9 q 172 73 213 35 q 107 164 132 112 q 83 276 83 215 l 182 276 q 195 211 182 245 q 235 149 209 177 q 298 101 261 120 q 383 83 335 83 q 460 96 421 83 q 530 137 498 109 q 580 205 561 164 q 600 302 600 246 q 581 382 600 344 q 534 447 562 419 q 475 491 506 475 q 422 507 445 507 q 334 518 378 507 q 255 556 290 530 q 198 624 220 582 q 176 726 176 665 q 186 792 176 754 q 222 864 197 830 q 288 922 247 898 q 392 946 330 946 q 473 933 438 946 q 532 899 508 920 q 571 853 556 879 q 595 804 587 828 q 607 758 604 779 q 611 724 611 736 l 512 724 q 501 776 512 753 q 472 815 489 799 q 433 839 454 831 q 392 848 413 848 "},"B":{"x_min":83,"x_max":1035,"ha":1026,"o":"m 83 24 l 83 1398 l 175 1398 q 238 1391 197 1398 q 331 1365 280 1384 q 434 1313 381 1346 q 530 1228 487 1280 q 602 1103 574 1176 q 632 931 631 1030 q 765 891 707 918 q 864 830 822 865 q 935 754 906 795 q 984 673 964 713 q 1035 466 1028 578 q 1006 291 1035 365 q 934 164 978 217 q 834 77 889 111 q 726 24 779 43 q 628 -1 673 5 q 559 -9 584 -9 q 475 0 522 -9 q 376 31 427 9 q 274 89 324 53 q 185 181 224 126 l 185 24 l 83 24 m 186 1300 l 186 934 l 539 934 q 514 1067 537 1010 q 457 1163 491 1123 q 381 1229 423 1203 q 301 1270 340 1255 q 231 1292 262 1285 q 186 1300 200 1298 m 562 90 q 705 119 637 90 q 825 198 773 148 q 907 317 876 249 q 938 461 938 385 q 908 606 938 538 q 828 723 879 673 q 707 802 776 773 q 559 832 638 832 l 186 832 l 186 478 q 216 318 186 390 q 298 196 247 247 q 418 117 350 145 q 562 90 486 90 "},"?":{"x_min":83,"x_max":622,"ha":613,"o":"m 301 431 l 301 954 l 319 954 q 324 952 319 952 q 336 953 329 952 q 352 956 343 954 q 418 974 387 958 q 473 1013 450 989 q 511 1067 497 1037 q 525 1127 525 1097 q 510 1190 525 1159 q 472 1246 496 1221 q 417 1286 448 1271 q 352 1302 386 1302 q 289 1288 319 1302 q 237 1250 259 1274 q 201 1192 214 1225 q 188 1122 188 1160 l 83 1122 q 104 1228 83 1178 q 163 1316 126 1279 q 248 1376 199 1354 q 352 1398 297 1398 q 456 1378 407 1398 q 541 1322 505 1358 q 600 1237 578 1287 q 622 1128 622 1188 q 600 1024 622 1071 q 546 943 578 977 q 476 888 513 908 q 405 865 438 868 l 405 431 l 301 431 m 356 140 q 408 118 386 140 q 430 65 430 96 q 408 12 430 34 q 356 -9 386 -9 q 303 12 325 -9 q 282 65 282 34 q 303 118 282 96 q 356 140 325 140 "},"H":{"x_min":83,"x_max":1051,"ha":1042,"o":"m 187 944 l 947 944 l 947 1398 l 1051 1398 l 1051 -9 l 946 -9 l 946 840 l 187 840 l 187 -9 l 83 -9 l 83 1398 l 187 1398 l 187 944 "},"c":{"x_min":83,"x_max":985.625,"ha":973,"o":"m 883 629 q 840 696 864 667 q 788 746 816 725 q 733 782 761 768 q 679 807 705 796 q 550 833 617 829 q 394 799 463 833 q 278 712 326 766 q 205 591 230 659 q 180 458 180 524 q 205 325 180 391 q 280 206 231 259 q 396 120 328 153 q 550 88 465 88 q 677 113 615 90 q 731 136 703 122 q 787 172 759 150 q 839 222 814 193 q 883 288 864 250 l 985 288 q 936 190 966 233 q 872 116 906 148 q 801 63 838 85 q 728 27 764 41 q 549 -9 643 -4 q 399 13 466 -9 q 280 72 332 35 q 191 158 229 110 q 130 258 154 206 q 94 362 106 310 q 83 457 83 414 q 94 553 83 501 q 129 657 105 604 q 190 759 153 710 q 279 845 227 807 q 398 906 330 883 q 549 929 465 929 q 730 890 644 923 q 803 854 766 876 q 874 801 841 833 q 937 727 908 770 q 985 629 966 684 l 883 629 "},"&":{"x_min":83,"x_max":1030.171875,"ha":1014,"o":"m 880 245 l 1030 -9 l 902 -9 l 797 166 q 773 141 785 153 q 748 116 761 128 q 715 85 732 100 q 678 55 697 69 q 586 9 637 28 q 467 -9 535 -9 q 332 15 401 -9 q 208 89 263 40 q 118 209 153 138 q 83 375 83 281 q 110 523 83 461 q 175 623 138 586 l 405 851 q 345 949 368 912 q 309 1007 322 986 q 287 1043 293 1031 q 266 1095 269 1070 q 263 1150 263 1120 q 280 1241 263 1197 q 329 1320 297 1286 q 408 1376 362 1355 q 516 1398 455 1398 q 632 1369 586 1398 q 706 1302 679 1341 q 745 1221 734 1262 q 757 1151 757 1179 q 755 1127 757 1145 q 748 1087 753 1109 q 734 1045 743 1066 q 713 1012 726 1024 l 536 835 l 830 338 l 1023 533 l 1023 386 l 880 245 m 627 1078 q 637 1094 632 1084 q 645 1115 641 1104 q 651 1136 649 1126 q 653 1150 653 1145 q 642 1200 653 1175 q 614 1244 632 1225 q 569 1276 595 1264 q 511 1289 543 1289 q 449 1276 475 1289 q 406 1242 423 1263 q 381 1198 389 1222 q 374 1151 374 1174 q 380 1115 374 1131 q 396 1080 386 1099 q 401 1072 397 1079 q 415 1049 405 1065 q 441 1003 425 1032 q 484 928 458 974 q 551 1000 524 971 q 595 1046 578 1028 q 627 1078 615 1066 m 289 589 q 220 492 246 542 q 195 376 195 441 q 217 261 195 312 q 278 175 240 210 q 364 120 315 139 q 466 102 413 102 q 548 112 514 102 q 606 139 582 123 q 629 154 619 146 q 647 169 639 162 q 662 183 655 177 q 673 194 668 189 l 690 212 q 714 234 700 221 q 746 265 727 247 l 454 758 q 409 711 430 733 q 372 672 387 689 q 336 637 353 652 q 313 614 325 626 q 289 589 301 602 "},"I":{"x_min":82.8125,"x_max":1048.921875,"ha":1040,"o":"m 1048 1398 l 1048 1293 l 635 1293 l 635 96 l 1048 96 l 1048 -9 l 82 -9 l 82 96 l 531 96 l 531 1293 l 82 1293 l 82 1398 l 1048 1398 "},"G":{"x_min":83,"x_max":1484,"ha":1475,"o":"m 1353 889 q 1339 934 1353 899 q 1295 1015 1325 969 q 1220 1111 1265 1061 q 1110 1204 1174 1162 q 965 1274 1047 1246 q 781 1302 883 1302 q 597 1274 681 1302 q 447 1201 514 1247 q 330 1093 380 1154 q 246 965 280 1032 q 195 828 212 898 q 179 695 179 759 q 195 570 179 637 q 244 436 211 503 q 327 307 277 369 q 444 198 377 245 q 596 122 511 150 q 786 94 682 94 q 970 121 888 94 q 1119 193 1053 148 q 1234 293 1185 237 q 1315 408 1282 350 q 1363 521 1347 467 q 1382 618 1380 576 l 748 618 l 748 721 l 1484 721 l 1484 -9 l 1383 -9 l 1382 339 q 1307 226 1350 275 q 1215 141 1264 177 q 1117 80 1167 105 q 1018 40 1066 56 q 785 -2 906 3 q 574 27 671 -2 q 400 108 478 57 q 263 228 322 160 q 163 374 203 297 q 103 533 123 451 q 83 693 83 614 q 103 854 83 772 q 163 1015 123 936 q 261 1163 202 1094 q 398 1285 321 1233 q 573 1367 476 1336 q 783 1398 669 1398 q 991 1366 897 1398 q 1160 1285 1085 1335 q 1290 1176 1235 1236 q 1382 1060 1345 1116 q 1437 957 1419 1003 q 1456 889 1456 911 l 1353 889 "},"(":{"x_min":83,"x_max":564.875,"ha":556,"o":"m 564 -9 q 376 44 464 -9 q 223 192 288 98 q 120 415 158 287 q 83 694 83 544 q 120 973 83 844 q 223 1196 158 1101 q 376 1344 288 1290 q 564 1398 464 1398 l 564 1294 q 428 1253 496 1294 q 307 1135 361 1212 q 221 946 254 1057 q 188 692 188 834 q 220 439 188 549 q 307 252 253 328 q 428 135 361 175 q 564 96 495 96 l 564 -9 "},"`":{"x_min":76.859375,"x_max":380.59375,"ha":365,"o":"m 198 1398 l 380 1080 l 258 1080 l 76 1398 l 198 1398 "},"U":{"x_min":83,"x_max":1512,"ha":1503,"o":"m 188 1398 l 188 690 q 208 538 188 612 q 268 396 229 463 q 362 273 307 329 q 484 175 416 216 q 631 111 552 134 q 797 88 710 88 q 961 110 882 88 q 1107 171 1040 132 q 1231 266 1175 211 q 1326 389 1286 322 q 1386 532 1365 456 q 1408 689 1408 608 l 1408 1398 l 1512 1398 l 1512 -9 l 1408 -9 l 1408 329 q 1328 216 1372 265 q 1234 133 1283 168 q 1133 73 1185 98 q 1033 33 1081 49 q 797 -9 919 -3 q 605 16 697 -9 q 434 89 513 42 q 290 201 354 136 q 179 344 225 266 q 108 510 133 422 q 83 690 83 598 l 83 1398 l 188 1398 "},"F":{"x_min":83,"x_max":1050.09375,"ha":1041,"o":"m 1050 1293 l 188 1293 l 188 944 l 832 944 l 832 841 l 188 841 l 188 -9 l 83 -9 l 83 1398 l 1050 1398 l 1050 1293 "},"r":{"x_min":83,"x_max":565.578125,"ha":557,"o":"m 184 906 l 184 733 q 236 790 207 766 q 296 833 265 815 q 360 863 327 851 q 422 884 392 876 q 565 907 492 903 l 565 807 q 441 790 496 807 q 344 746 386 773 q 271 685 301 719 q 222 617 241 651 q 194 552 203 583 q 185 500 185 521 l 185 -9 l 83 -9 l 83 906 l 184 906 "},":":{"x_min":83,"x_max":237,"ha":228,"o":"m 160 438 q 214 415 192 438 q 237 361 237 393 q 214 306 237 328 q 160 284 192 284 q 105 306 127 284 q 83 361 83 328 q 105 415 83 393 q 160 438 127 438 m 83 68 q 105 122 83 100 q 160 145 127 145 q 214 122 192 145 q 237 68 237 100 q 214 13 237 35 q 160 -9 192 -9 q 105 13 127 -9 q 83 68 83 35 "},"x":{"x_min":72.234375,"x_max":1013.96875,"ha":994,"o":"m 601 459 l 1013 -9 l 893 -9 l 543 391 l 193 -9 l 73 -9 l 486 459 l 72 935 l 187 935 l 542 525 l 899 935 l 1013 935 l 601 459 "},"*":{"x_min":79.65625,"x_max":531.71875,"ha":519,"o":"m 353 1397 l 353 1224 l 485 1307 l 531 1232 l 395 1152 l 531 1073 l 486 1002 l 353 1079 l 353 915 l 263 915 l 263 1078 l 127 998 l 79 1071 l 225 1152 l 79 1235 l 125 1309 l 263 1230 l 263 1397 l 353 1397 "},"V":{"x_min":77.78125,"x_max":1551.046875,"ha":1536,"o":"m 185 1398 l 813 191 l 1442 1398 l 1551 1398 l 813 -20 l 77 1398 l 185 1398 "},"h":{"x_min":83,"x_max":1050,"ha":1041,"o":"m 188 1398 l 187 770 q 241 831 212 804 q 302 877 271 858 q 366 910 334 896 q 428 932 398 924 q 571 957 498 953 q 761 917 673 957 q 913 812 849 878 q 1013 661 977 746 q 1050 486 1050 576 l 1050 -9 l 945 -9 l 945 486 q 926 606 945 552 q 876 702 907 660 q 806 772 845 743 q 724 821 766 802 q 641 850 682 841 q 566 859 600 859 q 473 846 520 859 q 385 810 427 833 q 306 756 343 787 q 243 687 270 724 q 202 609 217 650 q 187 524 187 567 l 187 -9 l 83 -9 l 83 1398 l 188 1398 "},"0":{"x_min":83,"x_max":1039,"ha":1030,"o":"m 561 1398 q 689 1372 628 1398 q 803 1301 750 1347 q 900 1190 856 1255 q 974 1047 943 1125 q 1022 880 1005 969 q 1039 694 1039 790 q 1022 508 1039 598 q 974 341 1005 419 q 900 198 943 263 q 803 87 856 133 q 689 16 750 41 q 561 -9 628 -9 q 433 16 494 -9 q 318 87 371 41 q 221 198 265 133 q 147 341 178 263 q 99 508 116 419 q 83 694 83 598 q 99 880 83 790 q 147 1047 116 969 q 221 1190 178 1125 q 318 1301 265 1255 q 433 1372 371 1347 q 561 1398 494 1398 m 934 694 q 904 929 934 820 q 823 1120 874 1039 q 705 1247 772 1201 q 561 1294 637 1294 q 417 1247 485 1294 q 298 1120 349 1201 q 217 929 247 1039 q 188 694 188 820 q 217 459 188 568 q 298 268 247 349 q 417 141 349 187 q 561 95 485 95 q 705 141 637 95 q 823 268 772 187 q 904 459 874 349 q 934 694 934 568 "},".":{"x_min":83,"x_max":218,"ha":209,"o":"m 150 126 q 198 106 178 126 q 218 58 218 86 q 198 10 218 30 q 150 -9 178 -9 q 102 10 122 -9 q 83 58 83 30 q 102 106 83 86 q 150 126 122 126 "},"@":{"x_min":83,"x_max":1020,"ha":1011,"o":"m 551 928 q 728 892 644 928 q 878 793 813 856 q 981 645 943 730 q 1020 459 1020 559 q 982 286 1015 369 q 946 213 968 251 q 891 141 923 176 q 815 74 859 105 q 716 19 772 42 l 716 264 q 661 227 690 240 q 608 209 632 215 q 552 202 579 202 q 462 216 509 202 q 376 263 415 231 q 312 344 337 294 q 287 462 287 393 q 312 580 287 530 q 375 661 337 629 q 461 708 414 693 q 551 723 508 723 q 609 715 580 722 q 662 698 633 710 q 715 665 690 686 l 715 723 l 809 723 l 810 723 l 810 722 l 810 191 q 872 275 850 229 q 905 363 894 322 q 919 460 917 411 q 890 603 919 535 q 808 723 861 671 q 694 799 759 771 q 550 827 629 827 q 394 794 462 827 q 278 709 325 762 q 208 592 232 657 q 184 460 184 527 q 219 298 184 366 q 309 183 254 229 q 430 115 363 137 q 561 93 498 93 l 561 -9 q 417 10 483 -9 q 298 64 351 30 q 205 144 246 98 q 137 241 164 190 q 96 349 110 293 q 83 459 83 405 q 101 599 83 535 q 154 715 120 663 q 233 807 188 767 q 330 873 278 847 q 439 914 382 900 q 551 928 495 928 m 716 459 q 703 523 716 493 q 667 574 690 552 q 615 610 645 597 q 552 623 586 623 q 488 610 518 623 q 436 574 458 597 q 400 523 413 552 q 388 459 388 493 q 400 395 388 425 q 436 344 413 366 q 488 308 458 321 q 552 296 518 296 q 615 308 586 296 q 667 344 645 321 q 703 395 690 366 q 716 459 716 425 "},"f":{"x_min":83,"x_max":575.984375,"ha":567,"o":"m 575 1301 q 407 1264 479 1301 q 286 1171 335 1227 q 212 1049 237 1115 q 185 924 186 983 l 575 924 l 575 827 l 188 827 l 188 -9 l 83 -9 l 83 912 q 126 1116 83 1026 q 240 1268 170 1206 q 398 1364 310 1331 q 575 1398 486 1398 l 575 1301 "},";":{"x_min":83,"x_max":236,"ha":227,"o":"m 159 441 q 213 418 191 441 q 236 364 236 396 q 213 310 236 332 q 159 288 191 288 q 105 310 127 288 q 83 364 83 332 q 105 418 83 396 q 159 441 127 441 m 102 122 l 203 122 l 203 -180 l 102 -180 l 102 122 "},"i":{"x_min":83,"x_max":233,"ha":224,"o":"m 83 1323 q 104 1376 83 1354 q 158 1398 126 1398 q 211 1376 189 1398 q 233 1323 233 1354 q 211 1269 233 1291 q 158 1248 189 1248 q 104 1269 126 1248 q 83 1323 83 1291 m 206 957 l 206 -9 l 102 -9 l 102 957 l 206 957 "},"6":{"x_min":83,"x_max":1060,"ha":1051,"o":"m 945 1398 l 508 961 q 530 963 519 963 q 550 965 540 964 q 570 966 560 966 q 719 953 652 971 q 842 898 787 934 q 937 812 896 862 q 1005 707 978 763 q 1046 592 1033 651 q 1060 479 1060 533 q 1036 324 1060 393 q 975 200 1013 254 q 886 107 936 146 q 782 41 836 67 q 673 3 728 16 q 570 -9 617 -9 q 423 12 490 -9 q 302 69 356 33 q 206 154 248 105 q 138 256 165 202 q 96 367 110 310 q 83 477 83 424 q 96 596 83 542 q 133 694 109 650 q 189 778 157 739 q 257 852 221 816 q 361 956 289 886 q 432 1027 391 986 q 529 1122 474 1068 q 653 1244 584 1176 q 807 1398 722 1312 l 945 1398 m 957 477 q 926 626 957 556 q 844 749 896 697 q 721 831 792 801 q 571 862 651 862 q 421 831 491 862 q 299 749 351 801 q 216 626 247 697 q 186 477 186 556 q 216 327 186 397 q 299 204 247 256 q 421 122 351 152 q 571 92 491 92 q 721 122 651 92 q 844 204 792 152 q 926 327 896 256 q 957 477 957 397 "},"A":{"x_min":83,"x_max":1050,"ha":1041,"o":"m 83 -9 l 83 913 q 124 1115 83 1025 q 233 1267 165 1204 q 388 1364 301 1330 q 566 1398 475 1398 q 743 1365 655 1398 q 898 1271 830 1333 q 1008 1120 966 1210 q 1050 915 1050 1030 l 1050 -9 l 945 -9 l 945 820 l 187 820 l 187 -9 l 83 -9 m 953 924 q 923 1056 951 988 q 846 1177 895 1123 q 725 1267 796 1232 q 567 1302 654 1302 q 407 1267 478 1302 q 287 1178 337 1232 q 210 1056 237 1124 q 181 924 182 988 l 953 924 "},"n":{"x_min":83,"x_max":1040,"ha":1031,"o":"m 187 765 q 237 820 204 788 q 318 879 270 851 q 426 926 365 907 q 561 946 488 946 q 742 909 655 946 q 895 810 828 873 q 1000 661 961 747 q 1040 477 1040 575 l 1040 -9 l 936 -9 l 936 478 q 913 604 936 539 q 843 723 890 670 q 726 810 797 776 q 561 845 656 845 q 445 828 498 845 q 351 784 393 811 q 279 722 310 757 q 227 652 248 687 q 196 582 206 616 q 186 522 186 548 l 186 391 q 186 225 186 325 q 187 -9 186 126 l 83 -9 l 83 946 l 187 946 l 187 765 "},"O":{"x_min":83,"x_max":1491,"ha":1482,"o":"m 787 1398 q 974 1373 884 1398 q 1142 1302 1063 1348 q 1284 1192 1220 1256 q 1395 1049 1349 1127 q 1465 881 1440 971 q 1491 694 1491 791 q 1465 507 1491 597 q 1395 339 1440 417 q 1284 196 1349 261 q 1142 86 1220 132 q 974 15 1063 40 q 787 -9 884 -9 q 512 46 640 -9 q 289 196 384 101 q 138 420 193 292 q 83 694 83 548 q 108 881 83 791 q 178 1049 133 971 q 289 1192 224 1127 q 431 1302 353 1256 q 599 1373 510 1348 q 787 1398 689 1398 m 1389 694 q 1341 928 1389 819 q 1212 1119 1294 1037 q 1021 1248 1130 1201 q 787 1296 912 1296 q 552 1248 661 1296 q 361 1119 443 1201 q 232 928 279 1037 q 185 694 185 819 q 232 460 185 569 q 361 269 279 351 q 552 140 443 187 q 787 93 661 93 q 1021 140 912 93 q 1212 269 1130 187 q 1341 460 1294 351 q 1389 694 1389 569 "},"3":{"x_min":80.203125,"x_max":944.890625,"ha":923,"o":"m 944 1398 l 496 950 q 655 909 577 945 q 795 811 733 873 q 893 664 856 750 q 931 476 931 579 q 897 298 931 386 q 800 142 863 211 q 646 32 737 74 q 441 -9 555 -9 q 310 11 375 -6 q 252 30 283 18 q 192 60 222 42 q 133 100 162 77 q 80 154 105 123 l 150 225 q 238 149 187 176 q 333 110 288 122 q 442 94 386 95 q 595 124 525 94 q 715 205 665 154 q 793 327 765 257 q 821 475 821 396 q 797 608 821 540 q 726 730 773 675 q 608 820 679 785 q 445 856 538 856 q 369 846 407 854 q 298 826 336 840 q 227 788 259 813 l 215 802 l 714 1301 l 82 1301 l 82 1398 l 944 1398 "},"]":{"x_min":83.125,"x_max":432,"ha":423,"o":"m 432 1398 l 432 -9 l 83 -9 l 83 89 l 335 89 l 335 1301 l 83 1301 l 83 1398 l 432 1398 "},"m":{"x_min":83,"x_max":1893,"ha":1884,"o":"m 988 684 q 1016 734 997 707 q 1064 791 1036 762 q 1129 848 1092 820 q 1209 897 1165 876 q 1304 932 1253 919 q 1413 946 1355 946 q 1588 911 1502 946 q 1742 815 1674 877 q 1851 666 1809 753 q 1893 475 1893 580 l 1893 -9 l 1790 -9 l 1790 478 q 1764 610 1790 544 q 1690 728 1739 675 q 1571 814 1641 781 q 1413 847 1502 847 q 1259 815 1327 847 q 1141 731 1190 783 q 1066 613 1092 679 q 1040 479 1040 547 l 1040 -9 l 937 -9 l 937 480 q 915 603 937 538 q 847 721 893 667 q 730 811 801 775 q 559 847 658 847 q 437 828 491 847 q 342 780 383 809 q 271 714 300 750 q 222 641 241 677 q 194 573 203 605 q 186 522 186 541 l 186 -9 l 83 -9 l 83 946 l 186 946 l 185 768 q 238 823 203 793 q 321 881 272 854 q 430 927 370 908 q 561 946 491 946 q 671 932 620 946 q 767 897 723 919 q 848 847 812 875 q 912 791 884 820 q 959 734 940 762 q 988 684 978 707 "},"9":{"x_min":83,"x_max":1061,"ha":1052,"o":"m 196 -9 l 634 428 q 609 424 621 425 q 589 422 597 423 q 571 422 579 422 q 367 464 458 422 q 214 576 277 507 q 117 733 151 646 q 83 909 83 820 q 124 1108 83 1018 q 233 1263 165 1198 q 389 1362 301 1327 q 572 1398 477 1398 q 755 1364 667 1398 q 911 1267 843 1330 q 1020 1113 979 1203 q 1061 910 1061 1023 q 1043 777 1061 835 q 997 673 1026 720 q 928 585 967 626 q 851 504 890 544 l 745 399 q 587 241 687 340 q 336 -9 487 141 l 196 -9 m 957 911 q 926 1060 957 990 q 844 1183 896 1131 q 721 1265 792 1235 q 571 1296 651 1296 q 421 1265 491 1296 q 299 1183 351 1235 q 217 1060 247 1131 q 187 911 187 990 q 217 761 187 831 q 299 639 247 691 q 421 557 351 587 q 571 527 491 527 q 721 557 651 527 q 844 639 792 587 q 926 761 896 691 q 957 911 957 831 "},"l":{"x_min":83,"x_max":575.984375,"ha":567,"o":"m 188 1398 l 188 474 q 210 340 188 408 q 280 217 233 272 q 400 127 327 162 q 575 92 474 92 l 575 -9 q 369 32 460 -9 q 214 142 277 74 q 116 297 150 210 q 83 475 83 384 l 83 1398 l 188 1398 "},"8":{"x_min":83,"x_max":1050,"ha":1041,"o":"m 840 1128 q 827 1056 838 1092 q 800 990 818 1025 q 746 926 781 954 q 799 902 768 919 q 864 857 830 885 q 931 791 898 829 q 991 706 964 753 q 1033 600 1017 658 q 1050 474 1050 541 q 1031 342 1050 404 q 981 226 1013 279 q 904 128 949 172 q 805 54 859 85 q 691 7 751 24 q 566 -9 630 -9 q 455 4 512 -9 q 345 46 398 18 q 243 114 291 73 q 160 208 196 154 q 103 328 124 262 q 83 474 83 395 q 100 607 83 547 q 145 715 118 667 q 207 800 173 764 q 277 862 242 837 q 342 903 312 888 q 393 926 373 919 q 339 987 358 952 q 312 1053 320 1022 q 301 1128 301 1090 q 328 1249 301 1199 q 396 1333 355 1300 q 484 1382 438 1366 q 570 1398 531 1398 q 665 1380 617 1398 q 752 1329 714 1363 q 815 1245 790 1296 q 840 1128 840 1195 m 737 1128 q 724 1192 737 1162 q 688 1245 711 1222 q 635 1281 665 1268 q 571 1294 605 1294 q 507 1281 537 1294 q 454 1245 477 1268 q 418 1192 431 1222 q 406 1128 406 1162 q 418 1064 406 1094 q 454 1011 431 1034 q 507 975 477 988 q 571 963 537 963 q 635 975 605 963 q 688 1011 665 988 q 724 1064 711 1034 q 737 1128 737 1094 m 948 471 q 917 619 948 550 q 836 740 887 689 q 715 821 785 791 q 567 852 646 852 q 419 821 488 852 q 298 740 349 791 q 217 619 247 689 q 187 471 187 550 q 217 323 187 392 q 298 202 247 253 q 419 121 349 151 q 567 91 488 91 q 715 121 646 91 q 836 202 785 151 q 917 323 887 253 q 948 471 948 392 "},"p":{"x_min":83,"x_max":1028,"ha":1019,"o":"m 185 940 l 185 758 q 235 818 207 792 q 292 862 262 843 q 354 895 323 881 q 414 916 385 908 q 556 940 483 936 q 748 901 661 940 q 897 797 835 863 q 993 646 959 732 q 1028 466 1028 561 q 993 286 1028 372 q 897 137 959 201 q 749 34 836 72 q 558 -4 663 -4 q 416 18 485 -1 q 355 39 386 26 q 293 71 323 52 q 235 114 263 89 q 185 173 207 140 l 185 -468 l 83 -468 l 83 940 l 185 940 m 928 467 q 898 612 928 544 q 819 731 869 680 q 700 810 768 781 q 555 840 632 840 q 410 810 478 840 q 291 731 342 781 q 212 612 241 680 q 183 467 183 544 q 212 322 183 390 q 291 203 241 254 q 410 124 342 153 q 555 95 478 95 q 700 124 632 95 q 819 203 768 153 q 898 322 869 254 q 928 467 928 390 "},"4":{"x_min":69.984375,"x_max":1054.6875,"ha":1045,"o":"m 1054 723 l 1054 618 l 863 618 l 863 -9 l 758 -9 l 758 619 l 69 619 l 862 1411 l 863 723 l 1054 723 m 760 723 l 759 1168 l 314 723 l 760 723 "},"R":{"x_min":83,"x_max":1027,"ha":1018,"o":"m 186 1398 l 186 1218 q 239 1277 210 1251 q 298 1322 268 1303 q 360 1354 329 1341 q 420 1375 391 1367 q 555 1398 486 1395 q 688 1379 626 1398 q 804 1326 751 1360 q 897 1248 856 1293 q 967 1151 939 1203 q 1011 1041 996 1098 q 1027 925 1027 983 q 984 726 1027 814 q 874 577 941 638 q 722 484 806 516 q 555 453 639 453 q 537 453 547 453 q 517 455 529 454 q 493 459 506 456 l 963 -9 l 820 -9 l 185 627 l 185 -9 l 83 -9 l 83 1398 l 186 1398 m 932 924 q 902 1070 932 1001 q 821 1189 872 1138 q 702 1269 770 1239 q 557 1299 634 1299 q 410 1269 479 1299 q 291 1189 342 1239 q 211 1070 241 1138 q 182 924 182 1001 q 211 778 182 846 q 291 659 241 710 q 410 578 342 608 q 557 549 479 549 q 702 578 634 549 q 821 659 770 608 q 902 778 872 710 q 932 924 932 846 "},"\r":{"x_min":0,"x_max":0,"ha":0},"o":{"x_min":83,"x_max":1035,"ha":1026,"o":"m 559 943 q 744 905 657 943 q 895 803 831 867 q 997 652 959 739 q 1035 467 1035 565 q 997 281 1035 367 q 895 130 959 194 q 744 28 831 66 q 559 -9 657 -9 q 373 28 459 -9 q 222 130 286 66 q 120 281 158 194 q 83 467 83 367 q 120 652 83 565 q 222 803 158 739 q 373 905 286 867 q 559 943 459 943 m 937 467 q 907 613 937 544 q 826 734 877 682 q 705 815 774 785 q 559 845 636 845 q 412 815 481 845 q 291 734 343 785 q 210 613 240 682 q 181 467 181 544 q 210 320 181 389 q 291 199 240 251 q 412 118 343 148 q 559 89 481 89 q 705 118 636 89 q 826 199 774 148 q 907 320 877 251 q 937 467 937 389 "},"5":{"x_min":79,"x_max":935,"ha":926,"o":"m 935 1293 l 183 1293 l 183 889 q 267 933 221 917 q 353 956 313 949 q 446 966 399 965 q 646 924 555 966 q 800 815 736 883 q 899 659 864 747 q 935 479 935 572 q 894 279 935 369 q 786 125 854 189 q 629 26 717 61 q 445 -9 540 -9 q 315 10 380 -6 q 257 29 287 17 q 195 57 226 41 q 135 97 165 74 q 79 149 105 120 l 160 226 q 212 171 182 194 q 273 134 242 148 q 335 112 305 120 q 390 100 366 104 q 429 96 414 96 q 444 96 444 96 q 618 132 545 96 q 738 224 691 168 q 807 347 785 280 q 830 477 830 414 q 795 644 830 571 q 704 765 760 716 q 580 840 649 815 q 444 865 512 865 q 324 845 378 865 q 226 794 270 826 q 146 719 182 762 q 83 631 111 677 l 83 1398 l 935 1398 l 935 1293 "}}}
